<svg id="Layer_1" data-name="Layer 1" xmlns="http://www.w3.org/2000/svg" viewBox="0 0 1570.22 1391.99"><defs><style>.cls-1{fill:#fff;}.cls-1,.cls-8{stroke:#000;stroke-miterlimit:10;}.cls-2{font-size:91px;font-family:Roboto-Thin, Roboto;}.cls-3{letter-spacing:-0.01em;}.cls-4{letter-spacing:-0.01em;}.cls-5{letter-spacing:-0.01em;}.cls-6{letter-spacing:-0.01em;}.cls-7{letter-spacing:-0.01em;}.cls-8{fill:none;}</style></defs><title>2020motorcyclepreviews</title><circle class="cls-1" cx="798.78" cy="915.74" r="345.34"/><path class="cls-1" d="M498.72,1005.67s-18.37,35.32,0,139.9l-71.37-6.36s-26.84-60.06,0-127.18Z" transform="translate(-65.28 -154.4)"/><path class="cls-1" d="M657.2,770.53s-37.92,12.16-98.5,99.35l-46.2-54.76s23.22-61.56,89.55-90.32Z" transform="translate(-65.28 -154.4)"/><path class="cls-1" d="M929.73,712.94s-35.38-18.28-139.9.36L796,641.92s60-27,127.19-.33Z" transform="translate(-65.28 -154.4)"/><path class="cls-1" d="M1162,868.81s-12-38-98.82-99l55-45.9s61.43,23.55,89.83,90Z" transform="translate(-65.28 -154.4)"/><path class="cls-1" d="M1220.72,1141.32s17.9-35.57-1.86-139.89l71.44,5.41S1318,1066.54,1292,1134Z" transform="translate(-65.28 -154.4)"/><path class="cls-1" d="M1063.53,1379.86s37.74-12.69,97.08-100.73l47,54.1s-22.34,61.88-88.26,91.58Z" transform="translate(-65.28 -154.4)"/><path class="cls-1" d="M789.83,1429.83s35.52,18,139.89-1.47l-5.61,71.43s-59.77,27.48-127.17,1.33Z" transform="translate(-65.28 -154.4)"/><path class="cls-1" d="M559.8,1279.9s12.62,37.76,100.55,97.27L606.16,1424s-61.83-22.46-91.41-88.43Z" transform="translate(-65.28 -154.4)"/><text class="cls-2" transform="translate(699.16 831.8)">2020<tspan x="-140.77" y="109.2">Mo</tspan><tspan class="cls-3" x="-12.66" y="109.2">t</tspan><tspan x="15.24" y="109.2">o</tspan><tspan class="cls-4" x="65.32" y="109.2">r</tspan><tspan x="94.91" y="109.2">c</tspan><tspan class="cls-5" x="141.08" y="109.2">y</tspan><tspan x="183.96" y="109.2">cles</tspan><tspan x="-76.25" y="218.4">P</tspan><tspan class="cls-6" x="-21.59" y="218.4">r</tspan><tspan class="cls-7" x="8" y="218.4">e</tspan><tspan x="53.28" y="218.4">views</tspan></text><ellipse class="cls-8" cx="789.75" cy="924.59" rx="457.26" ry="466.9"/><path class="cls-1" d="M79.44,257.46H489.36a42.17,42.17,0,0,1,42.17,42.17v37.57a1.5,1.5,0,0,1-1.5,1.5H39.28a1.5,1.5,0,0,1-1.5-1.5V299.12a41.66,41.66,0,0,1,41.66-41.66Z" transform="translate(-176.19 27.87) rotate(-30)"/><line class="cls-8" x1="591.18" y1="446.04" x2="449.96" y2="58.05"/><line class="cls-8" x1="294.6" y1="616.37" x2="30.23" y2="301.3"/><rect class="cls-1" x="82.76" y="359.75" width="490.57" height="27" rx="13.5" ry="13.5" transform="translate(-207.96 59.63) rotate(-30)"/><rect class="cls-1" x="112.35" y="410.99" width="490.57" height="27" rx="13.5" ry="13.5" transform="translate(-229.61 81.29) rotate(-30)"/><rect class="cls-1" x="143.33" y="464.65" width="490.57" height="27" rx="13.5" ry="13.5" transform="translate(-252.29 103.97) rotate(-30)"/><rect class="cls-1" x="173.9" y="517.6" width="490.57" height="27" rx="13.5" ry="13.5" transform="translate(-274.67 126.35) rotate(-30)"/><rect class="cls-1" x="204" y="569.74" width="490.57" height="27" rx="13.5" ry="13.5" transform="translate(-296.71 148.39) rotate(-30)"/><rect class="cls-1" x="236.21" y="625.52" width="490.57" height="27" rx="13.5" ry="13.5" transform="translate(-320.29 171.96) rotate(-30)"/><rect class="cls-1" x="270.25" y="684.48" width="490.57" height="27" rx="13.5" ry="13.5" transform="translate(-345.21 196.88) rotate(-30)"/><path class="cls-1" d="M1211.1,257.65H1621a42.17,42.17,0,0,1,42.17,42.17V337.4a1.5,1.5,0,0,1-1.5,1.5H1170.95a1.5,1.5,0,0,1-1.5-1.5V299.31A41.66,41.66,0,0,1,1211.1,257.65Z" transform="translate(273.6 -822.6) rotate(30)"/><line class="cls-8" x1="1275.09" y1="617.05" x2="1540.5" y2="300.76"/><line class="cls-8" x1="979.3" y1="445.37" x2="1119.97" y2="58.88"/><rect class="cls-1" x="1127.64" y="359.94" width="490.57" height="27" rx="13.5" ry="13.5" transform="matrix(0.87, 0.5, -0.5, 0.87, 305.37, -790.83)"/><rect class="cls-1" x="1098.06" y="411.17" width="490.57" height="27" rx="13.5" ry="13.5" transform="translate(327.03 -769.17) rotate(30)"/><rect class="cls-1" x="1067.07" y="464.84" width="490.57" height="27" rx="13.5" ry="13.5" transform="translate(349.71 -746.49) rotate(30)"/><rect class="cls-1" x="1036.5" y="517.79" width="490.57" height="27" rx="13.5" ry="13.5" transform="translate(372.09 -724.11) rotate(30)"/><rect class="cls-1" x="1006.4" y="569.93" width="490.57" height="27" rx="13.5" ry="13.5" transform="translate(394.13 -702.07) rotate(30)"/><rect class="cls-1" x="974.19" y="625.71" width="490.57" height="27" rx="13.5" ry="13.5" transform="translate(417.7 -678.5) rotate(30)"/><rect class="cls-1" x="940.15" y="684.67" width="490.57" height="27" rx="13.5" ry="13.5" transform="translate(442.62 -653.58) rotate(30)"/></svg>