<svg id="Layer_1" data-name="Layer 1" xmlns="http://www.w3.org/2000/svg" viewBox="0 0 1634.26 1668.67"><defs><style>.cls-1,.cls-2,.cls-3{stroke:#000;stroke-miterlimit:10;}.cls-2{fill:none;stroke-width:2px;}.cls-3{fill:#fff;}</style></defs><title>menulogo</title><circle class="cls-1" cx="823.82" cy="834.33" r="589.84"/><path class="cls-1" d="M212.4,719.52s-32.78,63.06,0,249.7L85,957.87s-47.92-107.19,0-227Z" transform="translate(-31.24 -16.06)"/><path class="cls-1" d="M495.26,299.85s-67.68,21.69-175.81,177.31L237,379.42s41.44-109.86,159.83-161.19Z" transform="translate(-31.24 -16.06)"/><path class="cls-1" d="M981.68,212.71s-63.14-29.64-249.7.58L743,97.57S850.08,53.79,970,97Z" transform="translate(-31.24 -16.06)"/><path class="cls-1" d="M1396.15,475.25s-21.32-67.8-176.37-176.76L1318,216.56s109.63,42,160.33,160.69Z" transform="translate(-31.24 -16.06)"/><path class="cls-1" d="M1501.05,961.64s32-63.48-3.32-249.68l127.51,9.66s49.34,106.55,3,227Z" transform="translate(-31.24 -16.06)"/><path class="cls-1" d="M1220.49,1387.4s67.36-22.65,173.27-179.79l83.84,96.56s-39.88,110.43-157.53,163.44Z" transform="translate(-31.24 -16.06)"/><path class="cls-1" d="M732,1489s63.39,29.18,249.68-2.38l-10,115.8s-106.68,44.55-227,2.16Z" transform="translate(-31.24 -16.06)"/><path class="cls-1" d="M321.42,1209s22.53,67.4,179.47,173.61l-96.72,83.65S293.81,1426.16,241,1308.41Z" transform="translate(-31.24 -16.06)"/><ellipse class="cls-2" cx="817.13" cy="834.33" rx="816.13" ry="833.33"/><rect class="cls-1" x="360.55" y="953.16" width="998.96" height="66.67" rx="33.33" ry="33.33"/><rect class="cls-3" x="351.03" y="582.05" width="936.24" height="12.61" rx="6.31" ry="6.31"/><rect class="cls-3" x="457.73" y="828.03" width="722.83" height="12.61" rx="6.31" ry="6.31"/><rect class="cls-3" x="337.26" y="1074" width="963.78" height="12.61" rx="6.31" ry="6.31"/></svg>